<?xml version="1.0" standalone="no"?>
<!DOCTYPE svg PUBLIC "-//W3C//DTD SVG 20010904//EN"
 "http://www.w3.org/TR/2001/REC-SVG-20010904/DTD/svg10.dtd">
<svg version="1.0" xmlns="http://www.w3.org/2000/svg"
 width="1312.000000pt" height="1312.000000pt" viewBox="0 0 1312.000000 1312.000000"
 preserveAspectRatio="xMidYMid meet">
<metadata>
Created by potrace 1.11, written by Peter Selinger 2001-2013
</metadata>
<g transform="translate(0.000000,1312.000000) scale(0.100000,-0.100000)"
fill="#000000" stroke="none">
<path d="M6997 12804 c-3 -3 -29 -7 -59 -9 -29 -2 -74 -6 -100 -10 -26 -4 -51
-7 -55 -7 -5 0 -14 -4 -21 -10 -7 -6 -15 -8 -19 -5 -3 4 -12 2 -20 -4 -7 -6
-13 -8 -13 -5 0 4 -10 1 -22 -6 -13 -7 -25 -13 -28 -13 -23 -4 -87 -31 -98
-42 -7 -7 -22 -13 -33 -13 -10 0 -19 -4 -19 -9 0 -5 -13 -14 -30 -21 -16 -7
-30 -16 -30 -20 0 -4 -10 -12 -22 -18 -36 -16 -77 -51 -158 -132 -82 -83 -89
-91 -140 -165 -45 -64 -66 -101 -86 -147 -9 -21 -20 -38 -25 -38 -5 0 -8 -3
-7 -7 1 -5 -8 -35 -20 -68 l-23 -60 -117 57 c-64 32 -126 59 -137 61 -11 1
-26 6 -32 10 -7 5 -13 6 -13 3 0 -2 -15 0 -32 5 -43 13 -102 22 -160 23 -27 1
-48 5 -48 9 0 5 -5 5 -12 1 -17 -11 -58 -11 -58 -1 0 4 -6 5 -12 0 -7 -4 -22
-8 -33 -9 -89 -6 -198 -33 -287 -70 -64 -27 -139 -64 -148 -75 -3 -3 -21 -14
-40 -25 -143 -80 -360 -342 -430 -519 -13 -33 -27 -64 -30 -70 -4 -5 -11 -25
-15 -42 -3 -18 -10 -33 -15 -33 -4 0 -7 -6 -7 -12 1 -7 -6 -44 -15 -83 -9 -38
-19 -90 -23 -115 -3 -25 -9 -58 -12 -75 -3 -16 -7 -619 -8 -1340 -2 -720 -3
-1313 -4 -1317 0 -4 -20 12 -44 35 -110 107 -258 219 -397 299 -94 54 -185
100 -205 104 -6 1 -31 11 -55 22 -47 20 -197 68 -240 76 -14 2 -32 7 -40 10
-8 2 -33 7 -55 10 -22 3 -54 8 -71 11 -40 7 -253 13 -259 7 -2 -3 -21 -6 -42
-7 -83 -6 -281 -73 -345 -117 -16 -11 -28 -16 -28 -11 0 4 -4 4 -8 -2 -4 -5
-29 -26 -57 -45 -27 -19 -66 -49 -85 -67 -19 -18 -38 -33 -42 -33 -5 0 -8 -4
-8 -9 0 -6 -12 -23 -26 -38 -63 -68 -154 -237 -168 -315 -3 -12 -5 -23 -6 -23
-5 0 -24 -185 -21 -195 1 -3 4 -32 6 -65 6 -90 13 -143 21 -156 4 -7 8 -22 9
-33 9 -81 159 -407 213 -464 6 -7 12 -17 12 -21 0 -4 11 -21 24 -36 13 -15 30
-40 38 -54 7 -14 16 -28 19 -31 15 -12 105 -209 114 -250 2 -8 4 -15 5 -15 1
0 3 -7 5 -15 10 -39 15 -57 24 -88 5 -18 10 -35 10 -37 0 -3 2 -18 5 -33 11
-49 16 -76 22 -112 2 -19 9 -57 14 -85 10 -58 19 -127 26 -205 2 -30 7 -80 9
-110 3 -30 7 -80 10 -110 12 -155 17 -574 20 -1545 1 -588 5 -1086 8 -1105 3
-19 9 -64 12 -100 8 -87 21 -185 31 -240 9 -46 15 -85 15 -102 0 -10 4 -18 9
-18 4 0 7 -8 6 -18 -8 -48 121 -467 189 -617 67 -146 109 -230 155 -311 29
-49 61 -105 72 -124 11 -19 23 -37 27 -40 7 -6 29 -40 38 -60 4 -8 9 -17 13
-20 3 -3 26 -34 52 -70 25 -36 54 -75 64 -87 11 -11 34 -40 53 -62 91 -113
239 -265 346 -358 33 -28 74 -63 90 -78 17 -14 55 -45 85 -68 30 -23 57 -45
58 -49 2 -5 9 -8 15 -8 6 0 20 -9 31 -19 22 -19 232 -161 240 -161 2 0 34 -18
70 -40 36 -22 70 -40 75 -40 5 0 11 -3 13 -7 2 -5 46 -29 98 -55 155 -76 203
-98 217 -98 7 0 13 -4 13 -10 0 -5 6 -10 14 -10 8 0 45 -13 82 -29 89 -37 335
-122 429 -147 109 -29 288 -73 325 -79 14 -2 36 -6 50 -9 58 -13 77 -16 115
-21 22 -3 54 -7 70 -11 17 -3 44 -7 60 -9 98 -12 135 -16 175 -20 248 -24 601
-25 880 -2 14 1 31 -2 39 -8 11 -7 13 -7 7 2 -5 9 2 13 26 14 18 0 40 2 48 3
8 2 42 6 75 10 58 6 100 13 100 16 0 1 18 3 40 5 22 2 51 6 65 9 25 6 44 10
109 21 44 8 292 72 325 84 13 6 27 7 30 4 3 -4 6 -1 6 5 0 7 8 12 17 12 32 0
333 118 383 150 8 6 22 13 30 16 45 17 296 164 334 195 6 5 43 33 81 61 74 55
94 72 183 153 74 67 115 109 187 190 33 37 68 76 78 86 9 11 17 23 17 29 0 5
8 14 18 19 9 6 13 11 7 11 -6 0 -6 3 0 8 27 19 194 271 212 319 4 10 17 35 30
56 13 20 20 37 16 37 -5 0 -3 4 2 8 20 14 122 256 164 387 13 39 25 77 28 85
3 8 7 20 9 25 1 6 14 55 29 110 14 55 28 107 30 115 30 140 61 320 71 413 3
28 7 68 9 87 2 19 4 35 5 35 1 0 3 32 5 70 2 39 4 70 5 70 5 0 8 148 8 350 1
196 -3 350 -8 350 -1 0 -4 23 -6 50 -10 127 -13 150 -14 150 -1 0 -3 15 -6 33
-2 17 -6 47 -8 65 -3 17 -5 32 -6 32 -1 0 -3 14 -5 30 -2 17 -7 41 -11 55 -4
14 -6 29 -6 33 3 10 -52 219 -72 275 -8 23 -13 42 -10 42 2 0 -4 17 -15 39
-11 21 -17 41 -14 45 4 3 0 6 -7 6 -7 0 -11 3 -8 6 7 6 -66 176 -103 239 -12
22 -28 51 -35 65 -23 45 -128 196 -174 251 -59 71 -218 226 -269 263 -23 17
-41 33 -41 38 0 4 -4 8 -9 8 -8 0 -99 56 -126 77 -5 4 -23 15 -40 23 -16 8
-32 17 -35 20 -13 15 -294 137 -330 144 -3 1 -11 5 -17 9 -7 5 -13 6 -13 3 0
-2 -24 4 -52 15 -29 10 -62 19 -74 19 -11 0 -24 3 -28 7 -3 4 -12 8 -19 9 -26
4 -74 13 -127 24 -30 6 -68 13 -85 15 -16 2 -63 9 -104 15 -159 23 -494 31
-673 17 -96 -8 -293 -34 -320 -43 -10 -3 -28 -7 -40 -10 -13 -2 -33 -6 -45 -9
-13 -3 -31 -7 -41 -9 -9 -2 -37 -9 -62 -16 -25 -7 -46 -12 -48 -11 -1 1 -18
-5 -37 -13 -20 -9 -36 -15 -38 -15 -21 2 -342 -133 -357 -150 -3 -3 -25 -16
-50 -29 -44 -22 -73 -39 -94 -55 -6 -4 -44 -30 -83 -57 -40 -28 -90 -65 -110
-83 -66 -56 -217 -210 -258 -262 -22 -27 -43 -52 -46 -55 -4 -4 -85 -128 -127
-195 -22 -36 -66 -130 -64 -137 1 -5 -2 -8 -8 -8 -6 0 -9 -3 -8 -7 1 -5 -6
-26 -16 -48 -39 -89 -97 -276 -110 -355 -3 -14 -5 -25 -6 -25 -2 0 -7 -32 -15
-95 -3 -30 -8 -61 -10 -68 -8 -21 -19 -267 -18 -397 0 -156 11 -320 29 -425 3
-19 7 -46 9 -58 2 -13 9 -45 15 -72 6 -26 13 -56 15 -66 2 -11 4 -19 5 -19 1
0 3 -8 5 -17 9 -45 58 -187 80 -228 7 -14 12 -27 12 -30 -3 -10 116 -220 124
-220 5 0 9 -7 9 -15 0 -8 4 -15 8 -15 4 0 15 -13 24 -28 27 -46 180 -194 244
-237 33 -22 61 -43 62 -47 2 -5 8 -8 12 -8 5 0 31 -13 59 -29 27 -16 52 -27
55 -24 3 4 6 1 6 -5 0 -7 8 -12 18 -12 10 0 23 -5 30 -12 7 -7 12 -8 12 -4 0
5 7 2 16 -5 9 -8 38 -19 63 -26 116 -32 200 -52 246 -58 28 -4 64 -9 80 -11
48 -6 311 -7 331 0 11 3 41 8 69 11 136 16 337 90 455 170 28 19 54 35 56 35
2 0 12 8 22 18 11 9 40 37 65 60 141 131 243 302 296 496 12 42 19 82 16 87
-4 5 -2 9 3 9 5 0 9 6 9 13 1 6 5 44 9 82 11 102 7 345 -6 345 -3 0 -7 9 -8
20 -4 44 -6 50 -14 50 -5 0 -7 4 -4 9 4 5 -12 32 -34 60 -70 88 -163 132 -268
126 -69 -4 -75 -6 -132 -34 -116 -57 -172 -154 -174 -307 0 -47 2 -88 5 -90
18 -11 -15 -211 -43 -262 -10 -17 -15 -32 -12 -32 4 0 -6 -17 -21 -37 -77
-104 -184 -165 -330 -188 -46 -7 -218 -7 -255 0 -14 3 -41 8 -60 11 -190 32
-356 156 -437 324 -51 106 -60 131 -82 215 -28 111 -34 147 -47 295 -10 104
-4 483 7 498 1 1 3 16 4 32 1 17 3 31 4 33 1 1 4 17 7 36 10 76 73 280 96 309
6 6 7 12 3 12 -4 0 -3 6 3 13 5 6 27 44 47 82 21 39 41 72 44 75 4 3 18 21 31
40 27 39 22 34 108 124 34 36 67 66 72 66 6 0 10 4 10 8 0 5 25 26 56 48 30
21 61 44 68 51 44 40 366 185 449 201 4 1 8 2 10 3 6 2 34 8 57 13 14 3 36 8
50 11 50 12 68 15 101 19 19 3 34 5 34 6 0 8 211 23 330 24 103 1 333 -14 430
-29 17 -2 47 -6 67 -10 20 -3 48 -9 61 -14 14 -6 27 -7 30 -4 3 3 12 1 19 -3
7 -5 20 -10 29 -11 100 -16 329 -116 449 -196 105 -71 300 -270 300 -306 0 -6
4 -11 9 -11 15 0 147 -279 171 -360 12 -41 25 -86 30 -100 10 -26 40 -166 46
-213 2 -15 6 -39 8 -54 8 -40 16 -103 21 -157 2 -27 7 -51 9 -54 3 -2 1 -13
-5 -23 -5 -11 -6 -19 -2 -19 9 0 12 -84 12 -300 -1 -219 -12 -391 -35 -550 -2
-19 -7 -48 -9 -65 -2 -16 -7 -42 -10 -57 -3 -16 -7 -40 -10 -55 -2 -16 -7 -41
-10 -58 -8 -40 -65 -266 -72 -285 -4 -8 -7 -18 -7 -22 -1 -3 -4 -10 -8 -14 -5
-4 -8 -15 -8 -24 0 -46 -153 -378 -221 -478 -16 -24 -29 -45 -29 -48 0 -8 -81
-117 -102 -137 -10 -10 -18 -22 -18 -26 0 -11 -204 -217 -249 -251 -17 -14
-42 -33 -54 -44 -12 -10 -62 -45 -112 -77 -49 -33 -94 -62 -100 -67 -15 -11
-245 -124 -258 -126 -7 -1 -21 -7 -32 -13 -27 -14 -98 -38 -107 -35 -5 1 -8
-3 -8 -10 0 -6 -3 -9 -6 -5 -4 3 -23 0 -43 -8 -33 -13 -239 -69 -286 -78 -11
-2 -31 -7 -45 -11 -14 -3 -41 -8 -60 -10 -19 -3 -35 -5 -35 -6 0 -2 -83 -12
-112 -14 -13 0 -23 -3 -23 -6 0 -3 -19 -6 -43 -7 -72 -4 -125 -10 -136 -17 -6
-4 -11 -2 -11 4 0 6 -5 8 -11 4 -25 -15 -437 -22 -609 -11 -149 11 -275 23
-275 27 0 1 -16 3 -35 5 -19 2 -35 4 -35 5 0 1 -13 3 -30 5 -16 2 -43 6 -60 9
-43 9 -126 25 -154 31 -46 9 -187 46 -271 73 -47 14 -87 27 -90 27 -3 1 -18 5
-35 10 -16 4 -36 12 -42 18 -7 5 -13 6 -13 3 0 -4 -10 -1 -22 6 -13 6 -29 13
-36 14 -8 1 -28 9 -45 17 -18 8 -63 27 -102 43 -129 52 -426 207 -433 226 -2
4 -8 8 -13 8 -8 0 -63 33 -104 62 -70 50 -239 179 -270 207 -43 39 -240 238
-283 286 -40 45 -152 192 -152 200 0 3 -6 13 -12 20 -28 31 -38 44 -38 51 0 3
-8 18 -19 32 -42 61 -146 264 -183 357 -11 28 -25 64 -32 80 -19 42 -41 119
-38 128 1 4 -2 7 -7 7 -5 0 -11 12 -14 28 -2 15 -16 70 -30 122 -26 96 -48
205 -52 250 -1 14 -5 39 -8 55 -9 43 -20 150 -21 217 0 32 -3 58 -6 58 -3 0
-5 456 -5 1013 0 678 -3 1014 -10 1019 -7 5 -7 8 0 8 7 0 10 21 8 53 -5 79 -4
128 3 138 3 5 2 9 -3 9 -4 0 -9 44 -10 98 -1 99 -11 289 -17 352 -2 19 -7 71
-11 114 -4 43 -8 86 -10 95 -1 9 -6 43 -10 76 -3 33 -16 110 -27 170 -11 61
-22 120 -23 132 -2 12 -6 26 -9 31 -3 5 -8 27 -12 48 -3 22 -19 82 -36 134
-26 84 -48 141 -106 283 -8 20 -19 37 -24 37 -4 0 -8 7 -8 15 0 17 -25 59
-111 187 -33 48 -59 91 -59 97 0 5 -4 11 -9 13 -13 5 -98 189 -104 228 -4 19
-9 51 -13 70 -10 51 -7 67 15 113 39 78 159 139 271 139 36 -1 81 -3 100 -6
32 -4 50 -8 150 -34 87 -22 335 -149 386 -197 6 -5 26 -21 45 -35 53 -38 222
-210 254 -257 15 -24 32 -43 36 -43 5 0 9 -6 9 -14 0 -8 6 -21 13 -28 24 -24
135 -225 142 -258 1 -3 9 -22 18 -44 9 -21 17 -42 17 -47 0 -4 5 -20 12 -36
15 -37 15 -38 33 -113 8 -36 17 -72 19 -80 5 -23 19 -102 22 -125 1 -11 5 -49
9 -85 4 -36 9 -326 10 -645 2 -536 3 -583 20 -625 26 -62 74 -124 113 -145 17
-10 32 -22 32 -27 0 -4 8 -8 18 -8 10 0 22 -3 26 -7 10 -10 35 -15 101 -18
107 -6 212 46 272 134 62 92 58 -112 59 2756 1 1447 4 2646 7 2665 15 78 19
97 34 145 57 177 195 326 338 368 63 18 182 14 224 -7 17 -9 31 -14 31 -11 0
11 87 -52 125 -91 56 -58 86 -94 77 -94 -4 0 -2 -4 4 -8 27 -17 83 -154 110
-267 4 -16 8 -925 9 -2020 1 -1094 6 -2010 10 -2035 4 -25 16 -61 26 -81 20
-41 92 -119 108 -119 6 0 11 -4 11 -8 0 -7 46 -27 90 -40 8 -3 47 -5 85 -5
104 0 203 53 260 138 10 17 20 35 22 40 1 6 9 28 17 50 13 35 15 338 15 2340
0 1567 3 2321 10 2366 39 239 195 447 371 492 30 8 67 14 83 13 15 -1 27 2 27
6 0 5 9 4 20 -2 10 -6 23 -9 27 -8 17 6 101 -27 150 -60 142 -92 239 -269 268
-487 2 -16 4 -1067 5 -2335 0 -1869 3 -2310 13 -2330 7 -14 14 -28 15 -33 5
-23 36 -69 69 -102 54 -54 133 -88 211 -90 61 -2 153 20 160 37 2 4 10 8 17 8
21 0 95 80 123 135 25 47 27 59 29 209 2 88 4 160 5 162 2 1 1 55 -2 119 -3
64 -2 119 1 120 3 2 2 29 -1 60 -3 31 -4 58 -1 60 3 2 4 47 1 100 -3 53 -2 98
1 100 3 2 2 29 -1 60 -3 31 -4 58 -1 60 3 2 4 47 1 100 -3 53 -2 98 1 100 3 2
2 29 -1 60 -3 31 -4 58 -1 60 3 2 4 47 1 100 -3 53 -2 98 1 100 3 2 2 29 -1
60 -3 31 -4 58 -1 60 3 1 4 65 1 140 -3 75 -3 138 0 140 3 2 3 92 0 200 -3
108 -2 198 1 200 3 2 2 29 -1 60 -3 31 -4 58 -1 60 3 2 4 101 1 220 -3 119 -3
218 0 220 3 2 3 56 0 120 -3 64 -2 119 1 120 3 2 2 29 -1 60 -3 31 -4 58 -1
60 3 2 4 47 1 100 -3 53 -2 98 1 100 3 2 2 29 -1 60 -3 31 -4 58 -1 60 3 2 4
47 1 100 -3 53 -4 98 -2 100 1 1 5 72 7 156 2 85 9 172 15 194 6 22 13 51 16
65 13 62 88 192 147 254 59 61 150 122 192 129 11 1 25 5 30 8 18 10 149 3
190 -11 22 -7 48 -19 58 -28 9 -8 17 -12 17 -9 0 11 40 -23 105 -88 83 -83
127 -172 174 -350 7 -27 11 -669 11 -2028 0 -1347 4 -2003 11 -2035 20 -89 83
-172 161 -209 75 -36 91 -40 158 -38 149 3 284 117 306 260 4 22 7 576 8 1230
2 947 5 1199 15 1235 7 25 15 52 16 60 12 55 75 188 108 226 136 158 273 216
427 179 19 -5 38 -8 42 -7 3 1 12 -5 18 -13 7 -8 19 -15 27 -15 16 0 17 -1 92
-67 45 -40 131 -150 131 -167 0 -3 11 -30 25 -59 13 -30 27 -69 30 -87 3 -18
8 -36 10 -40 2 -3 7 -29 11 -56 8 -53 13 -6373 5 -6388 -2 -5 -5 -46 -6 -90
-2 -45 -3 -81 -4 -81 -1 0 -4 -29 -6 -65 -6 -94 -17 -184 -31 -270 -3 -19 -7
-48 -9 -65 -3 -26 -40 -212 -49 -240 -1 -5 -9 -37 -16 -70 -8 -33 -14 -62 -15
-65 -13 -49 -27 -98 -32 -110 -3 -8 -7 -19 -9 -25 -4 -19 -35 -110 -43 -130
-26 -61 -61 -146 -77 -187 -11 -27 -22 -48 -26 -48 -5 0 -8 -6 -8 -14 0 -18
-91 -184 -153 -276 -101 -153 -209 -274 -359 -404 -104 -89 -138 -221 -94
-355 22 -64 117 -167 167 -180 8 -2 32 -9 54 -16 98 -30 222 6 324 92 61 52
186 177 248 248 87 100 229 300 259 365 4 8 13 22 19 30 16 19 143 269 168
329 10 25 34 85 54 135 19 50 39 100 43 111 18 44 50 150 50 167 0 10 5 18 12
18 6 0 9 2 6 5 -3 3 3 36 14 73 10 37 28 108 39 157 27 119 28 124 35 165 8
46 12 65 14 65 1 0 3 14 5 30 2 17 7 50 11 75 3 25 8 56 9 70 2 14 4 25 5 25
1 0 3 18 4 40 2 22 7 70 11 107 4 37 9 82 10 100 2 18 7 101 11 183 10 200 11
6432 1 6515 -4 36 -9 76 -12 90 -2 14 -6 36 -9 50 -4 21 -15 67 -31 130 -2 8
-4 16 -5 18 -2 1 -3 5 -4 10 -9 38 -30 88 -73 179 -14 29 -24 55 -23 59 1 4
-2 10 -7 13 -10 7 -40 53 -41 64 -1 4 -7 14 -14 21 -7 8 -22 26 -33 42 -51 70
-82 104 -158 177 -45 42 -85 77 -90 77 -4 0 -17 8 -28 18 -10 11 -32 25 -47
33 -15 8 -29 16 -32 19 -10 11 -126 63 -190 85 -178 61 -400 67 -580 16 -25
-7 -53 -15 -64 -17 -10 -2 -29 -10 -42 -19 -13 -8 -24 -13 -24 -10 0 3 -18 -4
-40 -15 -30 -16 -41 -17 -44 -8 -3 7 -4 121 -4 253 1 284 -3 339 -34 485 -7
30 -12 57 -13 60 -5 27 -40 127 -47 135 -4 5 -8 15 -8 23 0 24 -85 185 -140
266 -64 94 -192 226 -280 288 -62 44 -216 128 -243 132 -6 1 -18 5 -24 9 -7 5
-21 10 -31 12 -9 1 -35 8 -57 14 -63 16 -105 23 -175 26 -36 1 -69 4 -75 5 -5
1 -12 2 -15 0 -3 -1 -30 -3 -61 -5 -137 -7 -310 -63 -436 -140 l-42 -25 -6 22
c-4 13 -22 56 -41 96 -19 40 -34 75 -34 77 0 2 -13 24 -30 48 -16 25 -30 50
-30 56 0 6 -4 11 -8 11 -4 0 -15 12 -24 28 -9 15 -27 40 -40 57 -31 40 -189
195 -199 195 -4 0 -14 6 -22 14 -40 40 -238 146 -279 149 -10 1 -18 5 -18 9 0
4 -3 7 -7 6 -5 -1 -33 4 -63 12 -66 16 -65 16 -160 25 -41 4 -77 8 -81 11 -3
2 -9 1 -12 -2z"/>
</g>
</svg>
